# xmcd
#
# Track frame offsets:
#	150
#	21830
#	44209
#	71317
#	95475
#	135571
#	166277
#	191731
#
# Disc length: 3143 seconds
#
# Revision: 1
# Processed by: cddbd v1.5.2PL0 Copyright (c) Steve Scherf et al.
# Submitted via: audiograbber 1.83.01
#
DISCID=6d0c4508
DTITLE=Jack Bruce - Live At Zeche Bochum - CD1
DYEAR=1983
DGENRE=Blues-Rock
TTITLE0=U. A. Boogie
TTITLE1=Uptown Breakdown
TTITLE2=Travelin´ Child
TTITLE3=Make Love
TTITLE4=Green And Blue
TTITLE5=The Swarm
TTITLE6=Automatic Pilot
TTITLE7=Rollin´ and Tumblin´
EXTD=
EXTT0=
EXTT1=
EXTT2=
EXTT3=
EXTT4=
EXTT5=
EXTT6=
EXTT7=
PLAYORDER=
